<?xml version="1.0" encoding="utf-8"?>
<!-- Generator: Adobe Illustrator 23.0.6, SVG Export Plug-In . SVG Version: 6.00 Build 0)  -->
<svg version="1.1" id="Capa_1" xmlns="http://www.w3.org/2000/svg" xmlns:xlink="http://www.w3.org/1999/xlink" x="0px" y="0px"
	 viewBox="0 0 826.1 686" style="enable-background:new 0 0 826.1 686;" xml:space="preserve">
<style type="text/css">
	.st0{fill:#F34605;}
	.st1{fill:#F25508;}
	.st2{fill:#F37402;}
</style>
<g>
	<g>
		<g>
			<path class="st0" d="M500.1,399.6c-0.8,0.3-1.5,0.6-2.3,0.8c-0.1,0-0.3,0.1-0.5,0.2c-4.2,1.5-8.8,2.7-13.6,3.8
				c-10,2.3-21.1,3.7-33,4.1h0c-3.9-0.2-7.7-0.4-11.3-0.8l1.8,1c-3.9,0-7.8-0.1-11.5-0.4c-2.5-0.2-4.9-0.4-7.4-0.6
				c-7.1-0.7-13.9-1.7-20.2-3.1c-4.8-1-9.3-2.3-13.5-3.7c-6.6-2.2-12.5-4.8-17.5-7.8c-0.6-0.4-1.2-0.8-1.8-1.1
				c-8.9,6.7-21.2,12.5-35.1,17c-0.4,0.1-0.8,0.3-1.2,0.4c-11.3,3.7-23.5,6.5-35.9,8.6c-14.2,2.4-28.4,3.6-41.2,3.6
				c-51.3,0-125.4-20.1-127.9-51.7l13.8-38.6c25.9,16.8,66.4,26.3,114.1,26.3c30.6,0,58.2-3.9,81-11.1c3.4-1.1,6.7-2.3,9.9-3.5
				c1.1-0.4,2.1-0.8,3.2-1.3c3-1.2,5.8-2.5,8.5-3.9c0.4-0.2,0.9-0.4,1.3-0.7c0.9-0.4,1.7-0.9,2.6-1.4c0.7-0.4,1.5-0.8,2.2-1.2
				c1.9-1.1,3.7-2.2,5.5-3.3l6.1,17.2h0l0.6,1.6l0.4-1l2.7-7.6c-2.1-1.3-4-2.6-5.7-4l3.5-9.8l0.2-0.5l1.1-3.1l2-5.5l6.7-18.8
				l-7.7-3.8l-0.3-0.7l-1.6-4.5l-0.9-2.4l-0.5-1.5l-3.6-10L308.8,96.2C300.9,74,279.7,59,256,59c-23.6,0-44.8,15-52.8,37.2
				l-71.3,199.6L25,349.3C9.6,357,0,372.4,0,389.7c0,17.2,9.6,32.7,25,40.4l165.6,82.8c1.9,1,3.9,1.9,5.9,2.8c0.7,0.3,1.4,0.6,2,0.9
				c1.1,0.5,2.3,1,3.4,1.4c17.2,6.8,35.6,10.4,54.1,10.4c21.9,0,43.7-5,63.5-14.5l5.4-15c-0.1-0.7-0.2-1.5-0.3-2.2l13.8-38.6
				c13.7,8.9,31.5,15.8,52.3,20.2l30.7-15.4l31.7-15.8l34-17c2.7-1.4,5.3-3,7.6-4.8c4.1-3.2,7.6-7.1,10.4-11.4c2.5-4,4.4-8.4,5.6-13
				c0.5-2.1,0.9-4.3,1.1-6.5C508.2,396.2,504.3,398,500.1,399.6z M196.9,177.2c16.2,6.5,36.4,9.8,59.1,9.8c22.7,0,42.9-3.4,59.1-9.8
				l19.1,53.6C318.7,243.3,289.6,251,256,251c-33.6,0-62.7-7.7-78.2-20.3L196.9,177.2z"/>
		</g>
	</g>
	<g>
		<g>
			<path class="st1" d="M802.1,290.3l-102.7-53.5L630.9,37.2C623.3,15,602.9,0,580.2,0c-22.7,0-43.1,15-50.7,37.2l-62.5,182.2
				l-0.8,2.5l-0.1,0.4l-2.5,7.2l-2.1,6l-0.5,1.3l-8.4,4.4l12.8,37.3c-1.7,1.4-3.5,2.8-5.5,4l3.6,10.4l7-20.5c2,1.4,4.1,2.7,6.3,3.9
				c1.1,0.6,2.2,1.3,3.4,1.9c2.6,1.4,5.4,2.8,8.2,4c1.6,0.7,3.2,1.4,4.8,2c4.6,1.9,9.5,3.5,14.6,5.1c20.7,6.1,45.3,9.4,72.3,9.4
				c45.9,0,84.7-9.5,109.7-26.3l13.3,38.6c-2.4,31.6-73.6,51.7-122.9,51.7c-12.8,0-27.1-1.4-41.3-3.9c-2.2-0.4-4.4-0.8-6.6-1.3
				c-5.1-1.1-10.1-2.3-15.1-3.6c-3.4-0.9-6.7-1.9-10-3l0.1,0.3l1.4,4l6.2,17.3l3.7,10.4l2,5.5c-1.6,1.3-3.4,2.6-5.3,3.8
				c-1.1,0.7-2.3,1.4-3.6,2.1c-3.5,1.9-7.4,3.7-11.6,5.3l4.9,14.3l8.2,23.8c-0.3,4.1-1.8,8.1-4.3,11.8l8.5,4.4
				c19.4,10.1,41.1,15.4,62.8,15.4c2.6,0,5.1-0.1,7.7-0.2c2.7-0.2,5.3-0.4,8-0.7c0.2,0,0.3,0,0.5-0.1c11.7-1.4,23.3-4.4,34.3-8.8
				c1.9-0.8,3.7-1.5,5.6-2.4c2.3-1,4.5-2.1,6.8-3.3l159.1-82.8c14.8-7.7,24-23.2,24-40.4C826.1,313.4,816.9,298,802.1,290.3z
				 M580.2,192c-32.3,0-60.3-7.7-75.1-20.3l18.4-53.6c15.6,6.5,34.9,9.8,56.7,9.8c21.8,0,41.2-3.4,56.8-9.8l18.4,53.6
				C640.4,184.3,612.5,192,580.2,192z"/>
		</g>
	</g>
	<g>
		<g>
			<path class="st2" d="M402,334.8l-1.8,5.3c12.6,3,26.9,4.6,42.3,4.6c2.8,0,5.6,0,8.4-0.2C432.2,343.8,415.6,340.5,402,334.8z
				 M371.1,393.2c-0.6-0.4-1.2-0.8-1.8-1.1c-1.8-1.2-3.5-2.4-5.1-3.6l2.6-7.3l-0.6-1.6h0l-6.1-17.2c-2.4,1.6-5,3.1-7.7,4.5
				c-1.3,0.7-2.6,1.4-3.9,2l-8.5,23.9l-5.8,16.3L323,440.5c27.8-9,49.6-22.6,50.9-39.5L371.1,393.2z M370.3,363.7
				c-1-1.7-1.8-3.4-2.5-5.2l-3.5,9.8c1.7,1.4,3.6,2.8,5.7,4l2.1-5.9C371.4,365.6,370.8,364.7,370.3,363.7z M402,334.8l-1.8,5.3
				c12.6,3,26.9,4.6,42.3,4.6c2.8,0,5.6,0,8.4-0.2C432.2,343.8,415.6,340.5,402,334.8z M367.2,380.1l2.7-7.6l2.1-5.9
				c-0.6-0.9-1.2-1.9-1.8-2.8c-1-1.7-1.8-3.4-2.5-5.2c-2.3-5.5-3.5-11.6-3.5-17.9c0-2,0.1-4,0.4-6c-0.7,0.4-1.4,0.8-2.2,1.2
				c-0.9,0.5-1.7,0.9-2.6,1.4l-9.5,26.5l-1.8,5.2l-8.5,23.9l-5.8,16.3c13.9-4.6,26.2-10.3,35.1-17c-1.8-1.2-3.5-2.4-5.1-3.6l2.6-7.3
				L367.2,380.1z M673.5,506.9l-55.6-27.8l-1.4-0.7l-19.3-9.7l-0.8-0.4l-29.8-14.9l-4.8-13.5l-17.1-47.8l-8.6-24l-1.5-4.3l-1.6-4.5
				l-0.7-1.9l-10-28l-3.6-10l-9-25.2l-1.8-4.9l-1.1-3l-11.6-32.4c-1-2.9-2.3-5.8-3.8-8.4c-2.8-4.9-6.2-9.4-10.2-13.2
				c-4.5-4.3-9.6-7.8-15.2-10.4c-7.3-3.4-15.3-5.2-23.6-5.2c-23.7,0-44.8,15-52.8,37.2l-12.3,34.3L367,317.3l-0.2,0.5l-2.6,7.3
				l-1,2.7l-0.2,0.5l-3.2,9l-9.5,26.5l-1.8,5.2l-8.5,23.9l-5.8,16.3L323,440.5l-4.6,13L287.2,469l-75.7,37.9
				c-4.9,2.5-9.3,5.8-12.9,9.6c-7.5,8-11.9,18.7-12,30.1c0,0.2,0,0.5,0,0.7c0,7.7,1.9,15.1,5.5,21.6c4.3,8,11,14.5,19.5,18.8
				L377,670.6c20.2,10.1,42.8,15.4,65.4,15.4s45.2-5.3,65.4-15.4l165.6-82.8c8.3-4.1,14.8-10.5,19.2-18.2c3.7-6.6,5.8-14.3,5.8-22.2
				v-0.2C698.4,530,688.9,514.6,673.5,506.9z M364.2,388.4l2.6-7.3l0.4-1l2.7-7.6l2.1-5.9l5.7-15.9l5.6-15.8
				c5.2,2.1,10.8,3.8,16.8,5.3c12.6,3,26.9,4.6,42.3,4.6c2.8,0,5.6,0,8.4-0.2c11.8-0.5,22.7-1.8,32.7-4.1c4-0.9,7.8-2,11.5-3.2
				c2.2-0.7,4.4-1.5,6.5-2.3l5.7,16l0.1,0.3l1.4,4l6.2,17.3l3.7,10.4l2,5.5c-1.6,1.3-3.4,2.6-5.3,3.8c-1.1,0.7-2.3,1.4-3.6,2.1
				c-3.5,1.9-7.4,3.7-11.6,5.3c-0.8,0.3-1.5,0.6-2.3,0.8c-0.1,0-0.3,0.1-0.5,0.2c-4.2,1.5-8.8,2.7-13.6,3.8c-10,2.3-21.1,3.7-33,4.1
				h0c-2.7,0.1-5.5,0.2-8.3,0.2c-0.4,0-0.8,0-1.2,0c-3.9,0-7.8-0.1-11.5-0.4c-2.5-0.2-4.9-0.4-7.4-0.6c-7.1-0.7-13.9-1.7-20.2-3.1
				c-4.8-1-9.3-2.3-13.5-3.7c-6.6-2.2-12.5-4.8-17.5-7.8c-0.6-0.4-1.2-0.8-1.8-1.1C367.5,390.9,365.8,389.7,364.2,388.4z
				 M565.9,539.5c-3.2,4.7-8.1,9-14.1,13c-25.8,16.9-73.2,26.9-109.4,26.9c-35.9,0-82.9-9.8-108.8-26.5c-6.1-3.9-11-8.2-14.3-12.9
				c-2.8-3.9-4.5-7.9-4.8-12.3l4.9-13.8l5.4-15l3.5-9.8c13.7,8.9,31.5,15.8,52.3,20.2c9.6,2.1,19.9,3.6,30.7,4.6
				c9.9,1,20.3,1.4,31.1,1.4c11.1,0,21.8-0.5,32.1-1.5c10.8-1,21-2.6,30.5-4.7c20.4-4.5,37.9-11.3,51.5-20.1l13.8,38.6
				C570.1,531.8,568.5,535.8,565.9,539.5z M367.2,380.1l2.7-7.6l2.1-5.9c-0.6-0.9-1.2-1.9-1.8-2.8c-1-1.7-1.8-3.4-2.5-5.2
				c-2.3-5.5-3.5-11.6-3.5-17.9c0-2,0.1-4,0.4-6c-0.7,0.4-1.4,0.8-2.2,1.2c-0.9,0.5-1.7,0.9-2.6,1.4l-9.5,26.5l-1.8,5.2l-8.5,23.9
				l-5.8,16.3c13.9-4.6,26.2-10.3,35.1-17c-1.8-1.2-3.5-2.4-5.1-3.6l2.6-7.3L367.2,380.1z M402,334.8l-1.8,5.3
				c12.6,3,26.9,4.6,42.3,4.6c2.8,0,5.6,0,8.4-0.2C432.2,343.8,415.6,340.5,402,334.8z M370.3,363.7c-1-1.7-1.8-3.4-2.5-5.2
				l-3.5,9.8c1.7,1.4,3.6,2.8,5.7,4l2.1-5.9C371.4,365.6,370.8,364.7,370.3,363.7z M371.1,393.2c-0.6-0.4-1.2-0.8-1.8-1.1
				c-1.8-1.2-3.5-2.4-5.1-3.6l2.6-7.3l-0.6-1.6h0l-6.1-17.2c-2.4,1.6-5,3.1-7.7,4.5c-1.3,0.7-2.6,1.4-3.9,2l-8.5,23.9l-5.8,16.3
				L323,440.5c27.8-9,49.6-22.6,50.9-39.5L371.1,393.2z M402,334.8l-1.8,5.3c12.6,3,26.9,4.6,42.3,4.6c2.8,0,5.6,0,8.4-0.2
				C432.2,343.8,415.6,340.5,402,334.8z M371.1,393.2c-0.6-0.4-1.2-0.8-1.8-1.1c-1.8-1.2-3.5-2.4-5.1-3.6l2.6-7.3l-0.6-1.6h0
				l-6.1-17.2c-2.4,1.6-5,3.1-7.7,4.5c-1.3,0.7-2.6,1.4-3.9,2l-8.5,23.9l-5.8,16.3L323,440.5c27.8-9,49.6-22.6,50.9-39.5
				L371.1,393.2z"/>
		</g>
	</g>
</g>
</svg>
