<?xml version="1.0" encoding="utf-8"?>
<!-- Generator: Adobe Illustrator 23.0.6, SVG Export Plug-In . SVG Version: 6.00 Build 0)  -->
<svg version="1.1" id="Camada_1" xmlns="http://www.w3.org/2000/svg" xmlns:xlink="http://www.w3.org/1999/xlink" x="0px" y="0px"
	 viewBox="0 0 1214 1214" style="enable-background:new 0 0 1214 1214;" xml:space="preserve">
<style type="text/css">
	.st0{opacity:0.1;}
	.st1{stroke:#000000;stroke-miterlimit:10;}
	.st2{display:none;opacity:0.3;stroke:#000000;stroke-miterlimit:10;}
	.st3{stroke:#000000;stroke-width:5;stroke-miterlimit:10;}
	.st4{stroke:#000000;stroke-width:6;stroke-miterlimit:10;}
	.st5{fill:#FED2A4;}
	.st6{fill:#FFBD86;}
	.st7{fill:#F34605;}
	.st8{fill:#D83807;}
	.st9{fill:#03275A;}
	.st10{fill:#021833;}
	.st11{display:none;opacity:0.3;fill:#020202;}
	.st12{fill:#CFD8DC;stroke:#B6BDBF;stroke-width:5;stroke-miterlimit:10;}
	.st13{fill:#EAF1F4;}
	.st14{fill:#546E7A;stroke:#42575E;stroke-width:6;stroke-miterlimit:10;}
	.st15{fill:#42575E;}
	.st16{fill:none;stroke:#F34605;stroke-width:45;stroke-miterlimit:10;}
</style>
<g>
	<g class="st0">
		<path class="st1" d="M483.6,794.8l-41.4,56.5l-109.5,44l110.7-132c8.6-10.3,23.7-12.1,34.6-4.2
			C489.4,767.5,491.9,783.5,483.6,794.8L483.6,794.8z"/>
		<path class="st1" d="M416.2,819.1l-12.5,16.4l-21.9,92.5l78-88.5l11.6-69.1c0.9-5.5,0-10.9-2.4-15.6L416.2,819.1z"/>
		<g>
			<g>
				<path class="st1" d="M968.8,589.8c-157.7-35.4-306.4,59.7-464.5,17.5c0-112.1,0-224.2,0-336.3c159.7,42.6,309.9-54.9,469.4-16.4
					c4.2,1,7.2,4.3,7.2,8.2v318.8C980.8,587.2,974.9,591.2,968.8,589.8z"/>
				<path class="st1" d="M973.6,254.7c-31.9-7.7-63.5-10-94.8-9V439c0,52.3-46.6,95.9-106.1,98.3c-90.1,3.6-178.3,33.2-268.4,36v34
					c158.1,42.2,306.8-52.9,464.5-17.5c6.1,1.4,12-2.6,12-8.1c0-106.3,0-212.6,0-318.8C980.8,259,977.8,255.7,973.6,254.7z"/>
				<path class="st1" d="M742.5,431.9V263.8c0,0,0,0,0,0c-78.6,14.5-157.2,28.9-238.3,7.3v168.1
					C586.1,461.5,661.1,449.2,742.5,431.9z"/>
				<path class="st1" d="M742.5,600c74.7-13.7,149.4-27.5,226.2-10.2c6.1,1.4,12-2.6,12-8.1c0-52.3,0-104.7,0-157
					c-82-22.3-156.5-10.1-238.3,7.3V600z"/>
				<path class="st1" d="M878.8,412.6V439c0,52.3-46.6,95.9-106.1,98.3c-10.1,0.4-20.1,1.2-30.2,2.1V600
					c76.2-14,150-27.3,226.2-10.2c6.1,1.4,12-2.6,12-8.1c0-52.3,0-104.7,0-157C945.8,415.1,912.2,411.9,878.8,412.6z"/>
				<path class="st2" d="M742.5,600l-17.5,4.2c-2.8,0-2.5-7.3-2.5-10.9l0.9-315.8c0-5.7,3.4-9.7,7.8-11l11.4-2.8L742.5,600z"/>
			</g>
			<g>
				<path class="st3" d="M457.8,272.9h46.5v437h-46.5V272.9z"/>
				<path class="st1" d="M497.7,664.8L497.7,664.8c-2.2,0-3.9-1.7-3.9-3.9V296.2c0-2.2,1.7-3.9,3.9-3.9h0c2.2,0,3.9,1.7,3.9,3.9
					v364.7C501.6,663.1,499.8,664.8,497.7,664.8z"/>
			</g>
			<g>
				<path class="st4" d="M449.6,1036.1V709.9h62.9v326.2H449.6z"/>
				<g>
					<path class="st1" d="M513.3,777.3l-68.6-43.7c-1.4-0.9-1.8-2.7-0.9-4.1l0.9-1.4c0.9-1.4,2.7-1.8,4.1-0.9l68.6,43.7
						c1.4,0.9,1.8,2.7,0.9,4.1l-0.9,1.4C516.5,777.8,514.7,778.2,513.3,777.3z"/>
					<path class="st1" d="M513.3,808.5l-68.6-43.7c-1.4-0.9-1.8-2.7-0.9-4.1l0.9-1.4c0.9-1.4,2.7-1.8,4.1-0.9l68.6,43.7
						c1.4,0.9,1.8,2.7,0.9,4.1l-0.9,1.4C516.5,809,514.7,809.4,513.3,808.5z"/>
					<path class="st1" d="M513.3,839.7l-68.6-43.7c-1.4-0.9-1.8-2.7-0.9-4.1l0.9-1.4c0.9-1.4,2.7-1.8,4.1-0.9l68.6,43.7
						c1.4,0.9,1.8,2.7,0.9,4.1l-0.9,1.4C516.5,840.2,514.7,840.6,513.3,839.7z"/>
					<path class="st1" d="M513.3,870.9l-68.6-43.7c-1.4-0.9-1.8-2.7-0.9-4.1l0.9-1.4c0.9-1.4,2.7-1.8,4.1-0.9l68.6,43.7
						c1.4,0.9,1.8,2.7,0.9,4.1l-0.9,1.4C516.5,871.4,514.7,871.8,513.3,870.9z"/>
					<path class="st1" d="M513.3,902.2l-68.6-43.7c-1.4-0.9-1.8-2.7-0.9-4.1l0.9-1.4c0.9-1.4,2.7-1.8,4.1-0.9l68.6,43.7
						c1.4,0.9,1.8,2.7,0.9,4.1l-0.9,1.4C516.5,902.6,514.7,903,513.3,902.2z"/>
					<path class="st1" d="M513.3,933.4l-68.6-43.7c-1.4-0.9-1.8-2.7-0.9-4.1l0.9-1.4c0.9-1.4,2.7-1.8,4.1-0.9l68.6,43.7
						c1.4,0.9,1.8,2.7,0.9,4.1l-0.9,1.4C516.5,933.8,514.7,934.2,513.3,933.4z"/>
					<path class="st1" d="M513.3,964.6l-68.6-43.7c-1.4-0.9-1.8-2.7-0.9-4.1l0.9-1.4c0.9-1.4,2.7-1.8,4.1-0.9l68.6,43.7
						c1.4,0.9,1.8,2.7,0.9,4.1l-0.9,1.4C516.5,965,514.7,965.4,513.3,964.6z"/>
					<path class="st1" d="M513.3,995.8l-68.6-43.7c-1.4-0.9-1.8-2.7-0.9-4.1l0.9-1.4c0.9-1.4,2.7-1.8,4.1-0.9l68.6,43.7
						c1.4,0.9,1.8,2.7,0.9,4.1l-0.9,1.4C516.5,996.2,514.7,996.7,513.3,995.8z"/>
					<path class="st1" d="M513.3,1027l-68.6-43.7c-1.4-0.9-1.8-2.7-0.9-4.1l0.9-1.4c0.9-1.4,2.7-1.8,4.1-0.9l68.6,43.7
						c1.4,0.9,1.8,2.7,0.9,4.1l-0.9,1.4C516.5,1027.4,514.7,1027.9,513.3,1027z"/>
				</g>
			</g>
		</g>
		<g>
			<path class="st1" d="M442.5,880.6l93.5-49.1c13.6-7.1,20.7-23.7,16-37c-4.7-13.3-19.6-18.3-33.2-11.2L423,833.6l-41.5,23.8
				c-27.3,15.7-51.6,37.5-70.8,63.8l-91.8,125.6l119.5,87.4l14.7-20.1c10.7-14.6,24.4-26.6,39.8-34.8l145.2-77.3
				c13.6-7.1,20.7-23.7,16-37c-4.7-13.3-19.6-18.3-33.2-11.2L476.8,977l12.5-67.6L442.5,880.6z"/>
			<g>
				<path class="st1" d="M515.8,986.1l-145.2,77.3c-15.4,8.2-29.1,20.2-39.8,34.8l-14.5,19.9l22.1,16.2l14.7-20.1
					c10.7-14.6,24.4-26.6,39.8-34.8l145.2-77.3c13.6-7.1,20.7-23.7,16-37c-3.4-9.6-12.1-14.9-21.8-14.4
					C535.9,963.7,528.9,979.2,515.8,986.1z"/>
				<path class="st1" d="M530.2,780.1c3.7,13-3.4,28.6-16.5,35.4l-87.7,46c-2.5,1.3-3,4.8-0.9,6.1l6.4,4c8.1,5,18.6,4.9,28.1-0.1
					l76.2-40c13.6-7.1,20.7-23.7,16-37C548.5,784.9,539.8,779.6,530.2,780.1z"/>
			</g>
			<path class="st1" d="M450.4,933.5l87.8-45.9c13.6-7.1,20.7-23.7,16-37c-4.7-13.3-19.6-18.3-33.2-11.2l-78.6,41.3L450.4,933.5z"/>
			<path class="st1" d="M515.2,870.6l-51.3,27c-2.1,1.1-2.9,4-1.5,5.6l5,5.6c5.8,6.6,15.4,7.9,24.2,3.3l46.1-24.2
				c13.2-6.9,20.9-22.7,17.1-36c-3.1-10.6-12.4-16.4-22.8-15.7C535,849,527.9,864,515.2,870.6L515.2,870.6z"/>
			<path class="st1" d="M476.8,977l62.5-32.8c13.6-7.1,20.7-23.7,16-37c-4.7-13.3-19.6-18.3-33.2-11.2l-62.5,32.8L476.8,977z"/>
			<path class="st1" d="M518.3,928.8L472,953.1c-1.7,0.9-2.6,3-2,4.6l1.9,5.3c2.7,7.7,11.3,10.6,19.2,6.5l47.6-25
				c13.5-7.1,21.2-23.4,16.8-36.8c-3.2-9.6-11.5-15-21-15C538.6,905.9,531.5,921.8,518.3,928.8z"/>
		</g>
	</g>
	<g>
		<path class="st5" d="M473.6,783.8l-41.4,56.5l-109.5,44l110.7-132c8.6-10.3,23.7-12.1,34.6-4.2
			C479.4,756.5,481.9,772.5,473.6,783.8L473.6,783.8z"/>
		<path class="st6" d="M406.2,808.1l-12.5,16.4l-21.9,92.5l78-88.5l11.6-69.1c0.9-5.5,0-10.9-2.4-15.6L406.2,808.1z"/>
		<g>
			<g>
				<path class="st7" d="M958.8,578.8c-157.7-35.4-306.4,59.7-464.5,17.5c0-112.1,0-224.2,0-336.3c159.7,42.6,309.9-54.9,469.4-16.4
					c4.2,1,7.2,4.3,7.2,8.2v318.8C970.8,576.2,964.9,580.2,958.8,578.8z"/>
				<path class="st8" d="M963.6,243.7c-31.9-7.7-63.5-10-94.8-9V428c0,52.3-46.6,95.9-106.1,98.3c-90.1,3.6-178.3,33.2-268.4,36v34
					c158.1,42.2,306.8-52.9,464.5-17.5c6.1,1.4,12-2.6,12-8.1c0-106.3,0-212.6,0-318.8C970.8,248,967.8,244.7,963.6,243.7z"/>
				<path class="st9" d="M732.5,420.9V252.8c0,0,0,0,0,0c-78.6,14.5-157.2,28.9-238.3,7.3v168.1
					C576.1,450.5,651.1,438.2,732.5,420.9z"/>
				<path class="st9" d="M732.5,589c74.7-13.7,149.4-27.5,226.2-10.2c6.1,1.4,12-2.6,12-8.1c0-52.3,0-104.7,0-157
					c-82-22.3-156.5-10.1-238.3,7.3V589z"/>
				<path class="st10" d="M868.8,401.6V428c0,52.3-46.6,95.9-106.1,98.3c-10.1,0.4-20.1,1.2-30.2,2.1V589
					c76.2-14,150-27.3,226.2-10.2c6.1,1.4,12-2.6,12-8.1c0-52.3,0-104.7,0-157C935.8,404.1,902.2,400.9,868.8,401.6z"/>
				<path class="st11" d="M732.5,589l-17.5,4.2c-2.8,0-2.5-7.3-2.5-10.9l0.9-315.8c0-5.7,3.4-9.7,7.8-11l11.4-2.8L732.5,589z"/>
			</g>
			<g>
				<path class="st12" d="M447.8,261.9h46.5v437h-46.5V261.9z"/>
				<path class="st13" d="M487.7,653.8L487.7,653.8c-2.2,0-3.9-1.7-3.9-3.9V285.2c0-2.2,1.7-3.9,3.9-3.9h0c2.2,0,3.9,1.7,3.9,3.9
					v364.7C491.6,652.1,489.8,653.8,487.7,653.8z"/>
			</g>
			<g>
				<path class="st14" d="M439.6,1025.1V698.9h62.9v326.2H439.6z"/>
				<g>
					<path class="st15" d="M503.3,766.3l-68.6-43.7c-1.4-0.9-1.8-2.7-0.9-4.1l0.9-1.4c0.9-1.4,2.7-1.8,4.1-0.9l68.6,43.7
						c1.4,0.9,1.8,2.7,0.9,4.1l-0.9,1.4C506.5,766.8,504.7,767.2,503.3,766.3z"/>
					<path class="st15" d="M503.3,797.5l-68.6-43.7c-1.4-0.9-1.8-2.7-0.9-4.1l0.9-1.4c0.9-1.4,2.7-1.8,4.1-0.9l68.6,43.7
						c1.4,0.9,1.8,2.7,0.9,4.1l-0.9,1.4C506.5,798,504.7,798.4,503.3,797.5z"/>
					<path class="st15" d="M503.3,828.7l-68.6-43.7c-1.4-0.9-1.8-2.7-0.9-4.1l0.9-1.4c0.9-1.4,2.7-1.8,4.1-0.9l68.6,43.7
						c1.4,0.9,1.8,2.7,0.9,4.1l-0.9,1.4C506.5,829.2,504.7,829.6,503.3,828.7z"/>
					<path class="st15" d="M503.3,859.9l-68.6-43.7c-1.4-0.9-1.8-2.7-0.9-4.1l0.9-1.4c0.9-1.4,2.7-1.8,4.1-0.9l68.6,43.7
						c1.4,0.9,1.8,2.7,0.9,4.1l-0.9,1.4C506.5,860.4,504.7,860.8,503.3,859.9z"/>
					<path class="st15" d="M503.3,891.2l-68.6-43.7c-1.4-0.9-1.8-2.7-0.9-4.1l0.9-1.4c0.9-1.4,2.7-1.8,4.1-0.9l68.6,43.7
						c1.4,0.9,1.8,2.7,0.9,4.1l-0.9,1.4C506.5,891.6,504.7,892,503.3,891.2z"/>
					<path class="st15" d="M503.3,922.4l-68.6-43.7c-1.4-0.9-1.8-2.7-0.9-4.1l0.9-1.4c0.9-1.4,2.7-1.8,4.1-0.9l68.6,43.7
						c1.4,0.9,1.8,2.7,0.9,4.1l-0.9,1.4C506.5,922.8,504.7,923.2,503.3,922.4z"/>
					<path class="st15" d="M503.3,953.6l-68.6-43.7c-1.4-0.9-1.8-2.7-0.9-4.1l0.9-1.4c0.9-1.4,2.7-1.8,4.1-0.9l68.6,43.7
						c1.4,0.9,1.8,2.7,0.9,4.1l-0.9,1.4C506.5,954,504.7,954.4,503.3,953.6z"/>
					<path class="st15" d="M503.3,984.8l-68.6-43.7c-1.4-0.9-1.8-2.7-0.9-4.1l0.9-1.4c0.9-1.4,2.7-1.8,4.1-0.9l68.6,43.7
						c1.4,0.9,1.8,2.7,0.9,4.1l-0.9,1.4C506.5,985.2,504.7,985.7,503.3,984.8z"/>
					<path class="st15" d="M503.3,1016l-68.6-43.7c-1.4-0.9-1.8-2.7-0.9-4.1l0.9-1.4c0.9-1.4,2.7-1.8,4.1-0.9l68.6,43.7
						c1.4,0.9,1.8,2.7,0.9,4.1l-0.9,1.4C506.5,1016.4,504.7,1016.9,503.3,1016z"/>
				</g>
			</g>
		</g>
		<g>
			<path class="st5" d="M432.5,869.6l93.5-49.1c13.6-7.1,20.7-23.7,16-37c-4.7-13.3-19.6-18.3-33.2-11.2L413,822.6l-41.5,23.8
				c-27.3,15.7-51.6,37.5-70.8,63.8l-91.8,125.6l119.5,87.4l14.7-20.1c10.7-14.6,24.4-26.6,39.8-34.8L528.1,991
				c13.6-7.1,20.7-23.7,16-37c-4.7-13.3-19.6-18.3-33.2-11.2L466.8,966l12.5-67.6L432.5,869.6z"/>
			<g>
				<path class="st6" d="M505.8,975.1l-145.2,77.3c-15.4,8.2-29.1,20.2-39.8,34.8l-14.5,19.9l22.1,16.2l14.7-20.1
					c10.7-14.6,24.4-26.6,39.8-34.8L528.1,991c13.6-7.1,20.7-23.7,16-37c-3.4-9.6-12.1-14.9-21.8-14.4
					C525.9,952.7,518.9,968.2,505.8,975.1z"/>
				<path class="st6" d="M520.2,769.1c3.7,13-3.4,28.6-16.5,35.4l-87.7,46c-2.5,1.3-3,4.8-0.9,6.1l6.4,4c8.1,5,18.6,4.9,28.1-0.1
					l76.2-40c13.6-7.1,20.7-23.7,16-37C538.5,773.9,529.8,768.6,520.2,769.1z"/>
			</g>
			<path class="st5" d="M440.4,922.5l87.8-45.9c13.6-7.1,20.7-23.7,16-37c-4.7-13.3-19.6-18.3-33.2-11.2l-78.6,41.3L440.4,922.5z"/>
			<path class="st6" d="M505.2,859.6l-51.3,27c-2.1,1.1-2.9,4-1.5,5.6l5,5.6c5.8,6.6,15.4,7.9,24.2,3.3l46.1-24.2
				c13.2-6.9,20.9-22.7,17.1-36c-3.1-10.6-12.4-16.4-22.8-15.7C525,838,517.9,853,505.2,859.6L505.2,859.6z"/>
			<path class="st5" d="M466.8,966l62.5-32.8c13.6-7.1,20.7-23.7,16-37c-4.7-13.3-19.6-18.3-33.2-11.2l-62.5,32.8L466.8,966z"/>
			<path class="st6" d="M508.3,917.8L462,942.1c-1.7,0.9-2.6,3-2,4.6l1.9,5.3c2.7,7.7,11.3,10.6,19.2,6.5l47.6-25
				c13.5-7.1,21.2-23.4,16.8-36.8c-3.2-9.6-11.5-15-21-15C528.6,894.9,521.5,910.8,508.3,917.8z"/>
		</g>
	</g>
	<circle class="st16" cx="607" cy="607" r="584.5"/>
</g>
</svg>
