<svg width="116" height="116" viewBox="0 0 116 116" fill="none" xmlns="http://www.w3.org/2000/svg">
<path d="M114.209 58C114.209 26.9609 89.0391 1.79126 58 1.79126C26.9609 1.79126 1.79126 26.9609 1.79126 58C1.79126 89.0391 26.9609 114.209 58 114.209C89.0391 114.209 114.209 89.0391 114.209 58Z" fill="#0F0E0E"/>
<path d="M73.2222 83.2617C72.9107 82.8086 72.316 82.6245 71.7991 82.8794C66.2271 85.5061 59.9046 88.2886 58.6585 88.5435C58.6372 88.5151 58.5664 88.4727 58.524 88.3806C58.3611 88.1541 58.2691 87.8638 58.2691 87.4744C58.2691 84.3237 60.648 74.7444 65.3421 58.9983C69.3069 45.7656 69.76 43.0256 69.76 42.1194C69.76 40.7105 69.2149 39.5352 68.1954 38.6997C67.2183 37.9067 65.8872 37.4961 64.188 37.4961C61.356 37.4961 58.0921 38.5581 54.191 40.7812C50.4102 42.9124 46.1763 46.5374 41.6451 51.543C41.2769 51.9253 41.2557 52.52 41.553 52.9448C41.8433 53.3767 42.4097 53.5395 42.9124 53.3555C44.4983 52.697 52.5201 49.4119 53.6954 48.6897C54.6441 48.1021 55.4866 47.7834 56.1663 47.7834C56.1875 47.7834 56.2088 47.7834 56.23 47.7834C56.23 47.8259 56.2583 47.8967 56.2583 47.9888C56.2583 48.6685 56.1167 49.5039 55.8265 50.4102C49.0083 72.5212 45.6736 86.0938 45.6736 91.8711C45.6736 93.9102 46.24 95.5386 47.3516 96.7422C48.4844 97.967 50.0279 98.5759 51.9041 98.5759C53.9219 98.5759 56.3716 97.7405 59.4019 95.9917C62.326 94.3208 66.8147 90.625 73.0877 84.7344C73.4771 84.3237 73.5408 83.7148 73.2222 83.2617ZM72.9956 19.1658C71.8911 18.033 70.461 17.4453 68.7618 17.4453C66.6519 17.4453 64.7969 18.2808 63.2818 19.9375C61.7808 21.5659 61.0374 23.5413 61.0374 25.8494C61.0374 27.6619 61.6038 29.1841 62.687 30.3381C63.7986 31.5134 65.2076 32.1011 66.8785 32.1011C68.9175 32.1011 70.73 31.2231 72.316 29.4744C73.8807 27.7539 74.6736 25.7573 74.6736 23.4917C74.6736 21.75 74.1072 20.2986 72.9956 19.1658Z" fill="white"/>
</svg>
