<?xml version="1.0" encoding="utf-8"?>
<!-- Generator: Adobe Illustrator 24.3.0, SVG Export Plug-In . SVG Version: 6.00 Build 0)  -->
<svg version="1.1" id="Layer_1" xmlns="http://www.w3.org/2000/svg" xmlns:xlink="http://www.w3.org/1999/xlink" x="0px" y="0px"
	 viewBox="0 0 167.1 259.9" style="enable-background:new 0 0 167.1 259.9;" xml:space="preserve">
<style type="text/css">
	.st0{fill-rule:evenodd;clip-rule:evenodd;fill:#030303;}
</style>
<path class="st0" d="M115.1,229.2c-3.3-3.8-3.4-8.5-5.3-13.1c-4,9.3-7.8,18-11.8,27.1c-3.7-3.2-7.3-6.1-12.3-5.7
	c-4.9,0.4-8.5,3.3-12.2,6.9c-4.9-7.6-8-16.1-12.6-24.5c-1.5,3.1-2.7,5.6-3.9,8.2c-1.4,3.1-2.6,2.9-4.8,0.5
	c-16.2-17.3-27.3-37.4-33-60.4c-3.5-14.1-4.7-28.5-3.8-43c0.1-1.4,0.4-2.6-1.2-3.4c-4.5-2.2-4.5-6.2-3.9-10.3c1.3-9,2.5-18.1,4-27.1
	c1-5.4,4.8-9.7,6.9-14.7c6.1-14.9,14.5-28.5,26.6-39.2c24.9-22,56-19.7,78.4,5.7c7.2,8.2,12.4,17.5,17,27.3
	c2.4,5.2,2.9,11.1,7.4,15.8c2.6,2.8,1.8,8.8,2.5,13.4c1.2,7.5,1.6,15.2,3.9,22.5c0.5,1.7,0,3.3-1.1,4.1c-3.6,2.2-2.8,5.6-2.7,8.8
	c1.5,38.5-10.7,72.1-37,100.4C115.9,228.8,115.6,228.9,115.1,229.2z M95.9,124.5c0-5.1-0.2-10.2,0-15.2c0.7-13.9-1.1-11.8,12.5-10.4
	c15.5,1.6,30,7.1,44.5,13.4c-1.1-9.5-2.1-18.7-3.1-27.9c-0.2-2.5-1.9-3.2-3.7-4.1c-12.2-5.9-25.1-9.6-38.5-11.7
	c-12.3-1.9-12.5-1.9-12.3-14.8c0.2-9.8,0.7-19.6,1.2-29.4c0.2-4-1-6-5.3-5.8c-3.5,0.2-7-0.1-10.5,0c-6.7,0.2-6.8,0.4-6.6,7.4
	c0.4,11.6,2.4,23.1,1.3,34.9c-0.5,5.4-2.5,7.1-7.7,7.7c-17.1,1.9-33,7.6-47.4,17c-1.5,1-3.4,1.6-3.7,3.8c-1.2,9.6-2.3,19.2-3.5,29.4
	c1.3-0.8,2-1.2,2.7-1.6c16.7-10.7,35.2-16.2,54.8-18.3c1.5-0.2,3.9-1.6,4.5,1.3c1.9,8.8,1.2,17.5-0.3,27.2
	c-2.7-7.4-6.6-4.8-10.7-2.7c-4.3,2.2-8.7,4.1-13.1,6.1c-3,1.4-6.2,4.2-9,3.9c-3.4-0.5-3.3-5.4-5.2-8.2c-0.1-0.1-0.2-0.3-0.3-0.4
	c-0.9-2.5-3.3-2-5.1-2.1c-2.1-0.1-1.8,2.1-2.1,3.4c-1.3,4.7-1.7,9.5-1.2,14.3c0.7,7.1,4.1,12.5,10.7,15.7c2.4,1.2,4.4,1.2,6.8-0.4
	c8.3-5.5,16.9-10.6,25.3-16c2-1.3,2.8-1.7,4.3,1c3.1,5.6,7,10.7,10.9,16.4c3.8-7.5,9.7-13,11.5-20.9c8.5,5.1,16.8,10,25,15.1
	c2.4,1.5,4.4,1.5,6.9,0.2c9.8-5,14.3-17.2,10.5-28.9c-0.4-1.1-0.4-3.1-2-2.8c-1.5,0.3-3.5,0.1-4.4,1.9c-0.5,0.9-0.9,1.8-1.1,2.8
	c-0.5,2.5-1.6,3-4.2,2.2c-6.9-2-13.9-3.4-20.8-5.2C103.5,121.4,99.6,119.8,95.9,124.5z M32.9,68.8c6.4-4.9,14-6.4,21.5-8.4
	c-7.3-1-14,2.5-21.1,4c0.4-5.1,3-9.1,4.6-14.1c-6.5,6.1-13.4,20.6-13.4,27.7c13.5-8.5,27.9-14.2,44-14.1
	C56.2,62,44.5,65.4,32.9,68.8z M116.6,184c6.6-3.1,10.6-7.4,13.8-12.5c5-7.8,4.9-7.8-3-11.7c-0.4-0.2-1-0.4-1.3-0.7
	c-1.5-1.2-2.3-0.7-2.8,1C121.2,167.7,119.1,175.3,116.6,184z M53.7,186.8c0.3-1.1,0.4-1.2,0.4-1.4c-1.4-5.3-2.9-10.5-4.3-15.7
	c-2.6-9-3.2-9.2-11.3-4.3c-1,0.6-1.6,1.1-1.2,2.3C40.6,175.7,45.4,182.5,53.7,186.8z M62.3,59.3c0,0,0.1,0.1,0.1,0.1
	c-1.2,0-2.4,0-3.5,0c0,0,0-0.1,0-0.1C60,59.3,61.2,59.3,62.3,59.3z"/>
<g>
	<path class="st0" d="M86,90.9c-3.6,0-6.7-3.1-6.6-6.6c0.1-3.5,3.4-6.8,6.8-6.4c3.8,0.3,6.1,2.5,6.3,6.4
		C92.8,87.8,89.7,90.8,86,90.9z"/>
	<path class="st0" d="M85.1,56.8c-3.9-0.8-5.7-3-5.3-6.4c0.4-3.4,2.8-5.4,6.2-4.9c3.3,0.5,5.4,2.8,4.9,6.3
		C90.4,55.2,88,56.8,85.1,56.8z"/>
	<path class="st0" d="M134.2,87.5c3.1,0.3,5.1,1.8,5.3,4.9c0.3,3.5-1.9,5.5-5,5.6c-2.9,0.1-5.1-1.8-5.3-4.9
		C129,89.9,131.1,88.1,134.2,87.5z"/>
	<path class="st0" d="M31.8,89.6c3.1,0.6,5.3,2.3,5.1,5.7c-0.2,3-2.1,5-5.2,4.9c-3.4-0.1-5.2-2.4-5.1-5.5
		C26.7,91.7,28.8,90,31.8,89.6z"/>
	<path class="st0" d="M89.9,25.3c-0.4,2.4-1.6,4.2-4.4,4.2c-2.6,0-4.1-1.5-4.3-3.8c-0.2-2.7,1.4-4.4,4-4.6
		C88,20.9,89.4,22.7,89.9,25.3z"/>
</g>
</svg>
