<?xml version="1.0" encoding="utf-8"?>
<!-- Generator: Adobe Illustrator 23.0.6, SVG Export Plug-In . SVG Version: 6.00 Build 0)  -->
<svg version="1.1" id="Camada_1" xmlns="http://www.w3.org/2000/svg" xmlns:xlink="http://www.w3.org/1999/xlink" x="0px" y="0px"
	 viewBox="0 0 581 580.8" style="enable-background:new 0 0 581 580.8;" xml:space="preserve">
<style type="text/css">
	.st0{fill:#F34605;}
	.st1{fill:#03275A;}
	.st2{fill:#FFFFFF;}
</style>
<g>
	<g>
		<path class="st0" d="M453.3,42.7H58.7C26.3,42.7,0,69,0,101.3v352C0,485.7,26.3,512,58.7,512h394.7c32.4,0,58.7-26.3,58.7-58.7
			v-352C512,69,485.7,42.7,453.3,42.7z M492.6,461.8c0,15.5-12.6,28.1-28.1,28.1H48.4c-15.5,0-28.1-12.6-28.1-28.1V90.7
			c0-15.5,12.6-28.1,28.1-28.1h416.1c15.5,0,28.1,12.6,28.1,28.1V461.8z"/>
		<path class="st0" d="M496,176.5H16c-8.8,0-16-4.8-16-10.8s7.2-10.8,16-10.8h480c8.8,0,16,4.8,16,10.8S504.8,176.5,496,176.5z"/>
		<path class="st0" d="M394.3,128c-7.5,0-13.7-7.2-13.7-16V16c0-8.8,6.1-16,13.7-16S408,7.2,408,16v96
			C408,120.8,401.9,128,394.3,128z"/>
		<path class="st0" d="M117.3,128c-7.5,0-13.7-7.2-13.7-16V16c0-8.8,6.1-16,13.7-16S131,7.2,131,16v96
			C131,120.8,124.9,128,117.3,128z"/>
		<path class="st0" d="M453.3,42.7H58.7C26.3,42.7,0,69,0,101.3v352C0,485.7,26.3,512,58.7,512h394.7c32.4,0,58.7-26.3,58.7-58.7
			v-352C512,69,485.7,42.7,453.3,42.7z M492.6,461.8c0,15.5-12.6,28.1-28.1,28.1H48.4c-15.5,0-28.1-12.6-28.1-28.1V90.7
			c0-15.5,12.6-28.1,28.1-28.1h416.1c15.5,0,28.1,12.6,28.1,28.1V461.8z"/>
	</g>
	<g>
		<g>
			<path class="st1" d="M368.6,239.7H256h-76.7c-2,0-3.7,1.6-3.7,3.7s1.6,3.7,3.7,3.7h73v44.8c-22.5,1.9-40.3,20.8-40.3,43.8
				s17.8,42,40.3,43.8v44.8h-109c-2.8,0-5.1-2.3-5.1-5.1v-23.3h36c5,0,9-4,9-9V284.3c0-5-4-9-9-9h-36v-23.3c0-2.8,2.3-5.1,5.1-5.1
				h23.3c2,0,3.7-1.6,3.7-3.7s-1.6-3.7-3.7-3.7h-23.3c-6.8,0-12.4,5.6-12.4,12.4c0,1.5,0,138.7,0,140.2v26.9
				c0,6.8,5.6,12.4,12.4,12.4c4.9,0,220.4,0,225.2,0c6.8,0,12.4-5.6,12.4-12.4v-26.9c0-1.5,0-138.7,0-140.2
				C381,245.2,375.4,239.7,368.6,239.7z M138.3,282.6h36c0.9,0,1.7,0.8,1.7,1.7v102.6c0,0.9-0.8,1.7-1.7,1.7h-36V282.6z
				 M252.3,328.7c-2.5,1.3-4.2,3.9-4.2,6.9c0,3,1.7,5.6,4.2,6.9v29.5c-18.5-1.8-33-17.5-33-36.5c0-19,14.5-34.6,33-36.5V328.7z
				 M259.7,342.6c2.5-1.3,4.2-3.9,4.2-6.9c0-3-1.7-5.6-4.2-6.9v-29.5c18.5,1.8,33,17.5,33,36.5s-14.5,34.6-33,36.5V342.6z
				 M373.7,275.3h-36c-5,0-9,4-9,9v9.8c0,2,1.6,3.7,3.7,3.7s3.7-1.6,3.7-3.7v-9.8c0-0.9,0.8-1.7,1.7-1.7h36v105.9h-36
				c-0.9,0-1.7-0.8-1.7-1.7v-80.1c0-2-1.6-3.7-3.7-3.7c-2,0-3.7,1.6-3.7,3.7v80.1c0,5,4,9,9,9h36v23.3c0,2.8-2.3,5.1-5.1,5.1h-109
				v-44.8c22.5-1.9,40.3-20.8,40.3-43.8s-17.8-42-40.3-43.8V247h109c2.8,0,5.1,2.3,5.1,5.1L373.7,275.3L373.7,275.3z"/>
		</g>
	</g>
	<g>
		<circle class="st2" cx="438.5" cy="442.4" r="125.5"/>
		<g>
			<g>
				<path class="st0" d="M439.9,298.6c-78,0-141.1,63.1-141.1,141.1c0,78,63.1,141.1,141.1,141.1c78,0,141.1-63.1,141.1-141.1
					C581,361.7,517.9,298.6,439.9,298.6z M439.9,558.7c-65.8,0-119-53.2-119-119c0-65.8,53.2-119,119-119c65.8,0,119,53.2,119,119
					C559,505.5,505.7,558.7,439.9,558.7z"/>
			</g>
		</g>
		<g>
			<g>
				<path class="st0" d="M488.2,472.4l-32.7-32.7l32.7-32.7c4.3-4.3,4.3-11.3,0-15.6c-4.3-4.3-11.3-4.3-15.6,0l-32.7,32.7
					l-32.7-32.7c-4.3-4.3-11.3-4.3-15.6,0c-4.3,4.3-4.3,11.3,0,15.6l32.7,32.7l-32.7,32.7c-4.3,4.3-4.3,11.3,0,15.6
					c4.3,4.3,11.3,4.3,15.6,0l32.7-32.7l32.7,32.7c4.3,4.3,11.3,4.3,15.6,0S492.5,476.7,488.2,472.4z"/>
			</g>
		</g>
	</g>
</g>
</svg>
