<?xml version="1.0" encoding="utf-8"?>
<!-- Generator: Adobe Illustrator 24.3.0, SVG Export Plug-In . SVG Version: 6.00 Build 0)  -->
<svg version="1.1" id="Camada_1" xmlns="http://www.w3.org/2000/svg" xmlns:xlink="http://www.w3.org/1999/xlink" x="0px" y="0px"
	 viewBox="0 0 770.197 156.453" enable-background="new 0 0 770.197 156.453" xml:space="preserve">
<g>
	<polygon fill="#C91617" points="56.171,125.193 56.168,125.197 17.737,103.132 17.737,83.309 34.986,93.213 34.986,93.225 
		57.448,106.116 71.036,98.316 48.351,85.291 48.356,85.285 17.737,67.703 17.737,57.535 39.746,44.896 22.051,34.735 0.04,47.37 
		0,67.665 0.035,113.293 57.448,146.257 57.459,146.253 75.234,156.453 92.926,146.295 	"/>
	<polygon fill="#C91617" points="67.584,20.231 67.584,20.228 39.677,4.206 21.978,14.363 39.752,24.57 39.745,24.574 
		57.444,34.735 57.446,34.735 97.155,57.535 97.155,77.368 79.9,67.457 79.9,67.438 57.446,54.543 43.82,62.368 79.9,83.084 
		79.9,83.063 97.155,92.97 97.155,103.132 75.147,115.766 92.852,125.928 114.847,113.3 114.844,113.297 114.856,113.302 
		114.856,92.989 114.856,47.37 	"/>
	<path fill="#12100B" d="M209.815,66.757c-2.218-3.086-8.316-6.01-15.335-6.01c-9.051,0-13.393,3.158-13.393,7.166
		c0,4.7,6.648,6.009,14.411,6.782c13.481,1.39,26.049,4.316,26.049,17.189c0,12.026-12.751,17.191-27.16,17.191
		c-13.208,0-23.368-3.392-28.171-13.259l10.162-4.392c2.86,5.935,10.341,8.556,18.196,8.556c7.666,0,14.87-2.238,14.87-8.097
		c0-5.085-6.374-7.167-14.964-7.94c-13.207-1.308-25.4-4.24-25.4-16.337c0-11.104,13.114-15.648,25.033-15.73
		c10.068,0,20.504,2.392,25.4,10.714L209.815,66.757z"/>
	<polygon fill="#12100B" points="462.94,62.979 442.432,62.979 442.432,53.729 495.636,53.729 495.636,62.979 475.133,62.979 
		475.133,107.69 462.94,107.69 	"/>
	<path fill="#12100B" d="M646.542,81.017c-0.186,13.953-10.437,27.907-33.162,27.907c-22.721,0-33.251-13.648-33.251-27.83
		c0-14.186,10.901-28.445,33.251-28.445C635.641,52.649,646.722,66.909,646.542,81.017 M592.135,81.249
		c0.277,8.866,6.006,18.346,21.244,18.346c15.242,0,20.968-9.559,21.155-18.425c0.183-9.098-5.913-19.271-21.155-19.271
		C598.141,61.899,591.863,72.153,592.135,81.249"/>
	<polygon fill="#12100B" points="285.543,53.805 268.765,73.052 275.647,81.567 287.297,68.604 287.297,107.765 299.489,107.765 
		299.489,53.805 	"/>
	<polygon fill="#12100B" points="265.129,76.793 245.088,53.805 231.045,53.805 231.045,107.765 243.239,107.765 243.239,68.53 
		263.836,92.042 266.235,92.042 272.141,85.471 	"/>
	<polygon fill="#12100B" points="346.586,53.729 333.283,53.729 304.282,107.687 317.492,107.687 323.032,97.513 350.983,97.513 
		345.98,88.033 327.925,88.033 339.934,65.061 351.943,88.033 358.324,100.288 362.288,107.687 375.587,107.687 	"/>
	<path fill="#12100B" d="M418.804,88.572c12.282-2.082,16.349-9.557,16.349-16.958c0-9.328-8.033-17.809-23.275-17.885
		c-10.254,0-20.506-0.076-30.764-0.076v54.037h12.193V94.401h-0.002l0.005-13.921h-0.003V63.209h18.57
		c7.665,0,11.081,4.316,11.081,8.636c0,4.316-3.325,8.635-11.081,8.635h-13.384l-0.008,9.17h6.555l18.844,18.04h14.498v-0.696
		L418.804,88.572z"/>
	<polygon fill="#12100B" points="537.383,77.002 537.379,77.008 517.151,53.804 503.11,53.804 503.11,107.766 515.301,107.766 
		515.301,68.53 535.9,92.042 538.303,92.042 544.433,85.221 	"/>
	<polygon fill="#12100B" points="557.606,53.805 540.823,73.055 547.923,81.331 559.358,68.604 559.358,107.765 571.552,107.765 
		571.552,53.805 	"/>
	<polygon fill="#C91617" points="690.174,102.791 714.509,53.732 700.839,53.732 684.161,89.517 	"/>
	<polygon fill="#12100B" points="681.276,95.703 681.258,95.743 661.772,53.729 648.096,53.729 674.977,107.92 686.812,107.92 	"/>
	<polygon fill="#12100B" points="770.197,53.729 721.794,53.729 721.794,107.687 770.197,107.687 770.197,97.669 733.897,97.669 
		733.897,85.485 733.904,85.485 733.901,76.009 733.897,76.009 733.897,63.594 770.197,63.594 	"/>
	<rect x="739.084" y="76.009" fill="#12100B" width="29.819" height="9.478"/>
	<text transform="matrix(1 0 0 1 163.2161 30.7348)" fill="#1D1D1B" font-family="'Lato-Light'" font-size="36px">Powered by:</text>
</g>
</svg>
